<?xml version="1.0" standalone="no"?>
<!DOCTYPE svg PUBLIC "-//W3C//DTD SVG 20010904//EN"
 "http://www.w3.org/TR/2001/REC-SVG-20010904/DTD/svg10.dtd">
<svg version="1.0" xmlns="http://www.w3.org/2000/svg"
 width="271.000000pt" height="271.000000pt" viewBox="0 0 271.000000 271.000000"
 preserveAspectRatio="xMidYMid meet">
<metadata>
Created by potrace 1.11, written by Peter Selinger 2001-2013
</metadata>
<g transform="translate(0.000000,271.000000) scale(0.100000,-0.100000)"
fill="#000000" stroke="none">
<path d="M1375 2689 c-93 -49 -135 -115 -142 -223 -2 -39 -9 -93 -14 -121 -6
-27 -12 -59 -15 -70 -10 -50 -24 -119 -48 -235 -15 -69 -29 -136 -31 -150 -3
-14 -15 -73 -27 -132 l-23 -106 -242 105 c-222 98 -241 108 -234 127 4 12 7
28 6 36 -1 8 -3 25 -3 37 -2 25 -57 83 -78 83 -7 0 -14 5 -16 11 -2 5 -10 11
-18 12 -8 2 -20 6 -27 10 -7 4 -25 1 -41 -7 -27 -14 -30 -14 -49 7 -28 31 -72
67 -81 66 -17 -2 -33 -24 -31 -43 2 -34 0 -39 -14 -28 -19 16 -44 -17 -40 -51
3 -18 -2 -29 -17 -37 -26 -14 -25 -38 3 -68 15 -17 18 -26 10 -29 -16 -6 -16
-43 0 -64 20 -26 110 -67 167 -75 8 -1 36 -5 62 -8 72 -9 190 -49 406 -138
108 -44 199 -82 201 -84 5 -4 -13 -108 -38 -222 -21 -97 -14 -120 35 -108 61
16 102 20 209 20 130 0 211 -23 304 -85 97 -65 140 -146 128 -243 -16 -124
-115 -197 -278 -202 -102 -4 -183 13 -293 61 -124 54 -117 72 -114 -288 l3
-302 65 -32 c78 -39 200 -79 295 -98 70 -13 294 -14 365 0 196 37 356 117 495
249 113 108 129 122 122 110 -9 -15 36 -24 57 -12 8 5 13 15 10 22 -3 7 2 16
10 19 9 4 16 2 16 -2 0 -16 40 1 51 20 5 11 6 19 1 19 -4 0 -8 11 -8 25 0 19
5 25 22 25 12 0 25 7 28 16 8 22 8 62 -1 66 -5 2 -19 26 -33 53 -13 28 -29 53
-35 57 -6 4 -10 57 -11 125 -2 212 -38 340 -141 501 -92 145 -249 260 -453
332 -36 13 -66 24 -68 25 -1 1 2 14 7 29 l11 26 279 0 c223 0 281 3 290 14 8
9 11 112 9 357 l-3 344 -31 9 c-28 8 -33 15 -38 53 -17 128 -124 216 -252 209
-74 -4 -103 -16 -153 -61 -41 -37 -81 -121 -81 -170 0 -23 -4 -25 -50 -25 -45
0 -50 2 -51 23 -1 12 -1 26 0 30 2 12 -60 137 -68 137 -4 0 -17 9 -29 20 -53
50 -180 64 -247 29z"/>
</g>
</svg>
